<?xml version="1.0" encoding="UTF-8"?>
<svg version="1.1" xmlns="http://www.w3.org/2000/svg" width="160" height="160">
<path d="M0 0 C1.73438112 -0.00389404 3.46876129 -0.00823016 5.20314026 -0.01298523 C8.82662049 -0.02041808 12.45000323 -0.02017732 16.07348633 -0.01489258 C20.69429295 -0.00909827 25.3146987 -0.02604229 29.93543911 -0.04923725 C33.5138834 -0.06403744 37.0922325 -0.06483784 40.67070198 -0.06172752 C42.37338111 -0.06223746 44.07606604 -0.067413 45.77871513 -0.07753944 C65.62040715 -0.18109319 65.62040715 -0.18109319 74.19140625 5.17578125 C78.36656585 9.61188833 78.43420341 13.85501279 78.5546875 19.703125 C78.19140625 22.30078125 78.19140625 22.30078125 76.6953125 25.015625 C74.68742167 29.40169302 74.8365608 33.16572466 74.81640625 37.92578125 C74.44199096 51.26902119 70.2524966 61.2737476 60.76171875 70.71875 C56.74867158 74.46386375 53.45430649 77.51833732 48.19140625 79.30078125 C50.58135243 81.88988961 53.07763037 83.96447113 55.94140625 85.98828125 C65.80423133 93.35325864 70.35169642 101.78165175 74.19140625 113.30078125 C74.30318869 114.71086654 74.36887544 116.12494945 74.40234375 117.5390625 C74.43070312 118.35955078 74.4590625 119.18003906 74.48828125 120.02539062 C74.54000451 121.73872353 74.58438054 123.45229538 74.62109375 125.16601562 C74.81592383 130.3574255 75.65441176 133.67410445 78.19140625 138.30078125 C79.09541354 144.11478893 78.67408967 149.42502446 75.19140625 154.30078125 C68.82457199 159.51000928 62.07453525 160.60135772 54.04394531 160.59130859 C53.26079956 160.59802582 52.47765381 160.60474304 51.67077637 160.61166382 C49.09946219 160.63055341 46.52841036 160.63456363 43.95703125 160.63671875 C42.15492652 160.64315372 40.35282281 160.64988259 38.55072021 160.65689087 C34.77825501 160.66884162 31.00588122 160.67257404 27.23339844 160.67138672 C22.4242157 160.67118383 17.6156259 160.69846431 12.8065834 160.73293114 C9.0848324 160.75528577 5.36322206 160.75922162 1.64141083 160.75816727 C-0.13023162 160.76051118 -1.90187867 160.76926572 -3.67345428 160.784832 C-26.03278206 160.96288314 -26.03278206 160.96288314 -33.43359375 153.73828125 C-35.40964482 150.23528163 -35.98551393 147.4528617 -36.05859375 143.48828125 C-36.084375 142.65683594 -36.11015625 141.82539063 -36.13671875 140.96875 C-35.80859375 138.30078125 -35.80859375 138.30078125 -34.34765625 135.57421875 C-32.32600654 131.27436481 -32.21562966 127.43001076 -31.93359375 122.73828125 C-30.77439633 108.46923673 -26.54303576 97.25017807 -15.74609375 87.48828125 C-12.91173065 85.09457729 -9.99914029 83.19516826 -6.80859375 81.30078125 C-6.80859375 80.64078125 -6.80859375 79.98078125 -6.80859375 79.30078125 C-8.56290573 77.98932212 -8.56290573 77.98932212 -10.80859375 76.67578125 C-21.78008271 69.51072724 -28.40035715 60.03925831 -31.80859375 47.30078125 C-32.1794587 43.30538977 -32.22162491 39.29920657 -32.28710938 35.2890625 C-32.45497909 30.13832818 -33.29325418 26.89573227 -35.80859375 22.30078125 C-36.71260104 16.48677357 -36.29127717 11.17653804 -32.80859375 6.30078125 C-23.76688382 -1.44925583 -11.18027467 -0.01048466 0 0 Z M-3.80859375 110.73828125 C-6.29023224 113.91788056 -6.57471596 116.32485883 -6.80859375 120.30078125 C-5.05729718 119.1986722 -3.30760911 118.09400693 -1.55859375 116.98828125 C-0.09679688 116.06595703 -0.09679688 116.06595703 1.39453125 115.125 C2.77898438 114.22201172 2.77898438 114.22201172 4.19140625 113.30078125 C4.95453125 112.81609375 5.71765625 112.33140625 6.50390625 111.83203125 C8.60135536 109.9287904 8.75878401 108.89827045 8.94140625 106.11328125 C9.02390625 104.85515625 9.10640625 103.59703125 9.19140625 102.30078125 C5.11960952 102.30078125 -0.79856854 108.29263577 -3.80859375 110.73828125 Z M33.19140625 102.30078125 C33.08872479 107.86004959 33.08872479 107.86004959 36.0859375 112.3203125 C39.94502894 115.36022698 43.56346718 117.61043471 48.19140625 119.30078125 C47.56166711 113.79056379 45.1504934 110.94421863 40.9609375 107.4296875 C37.410024 104.07536956 37.410024 104.07536956 33.19140625 102.30078125 Z " fill="#F8F8F8" transform="translate(58.80859375,-0.30078125)"/>
<path d="M0 0 C1.73438112 -0.00389404 3.46876129 -0.00823016 5.20314026 -0.01298523 C8.82662049 -0.02041808 12.45000323 -0.02017732 16.07348633 -0.01489258 C20.69429295 -0.00909827 25.3146987 -0.02604229 29.93543911 -0.04923725 C33.5138834 -0.06403744 37.0922325 -0.06483784 40.67070198 -0.06172752 C42.37338111 -0.06223746 44.07606604 -0.067413 45.77871513 -0.07753944 C65.62040715 -0.18109319 65.62040715 -0.18109319 74.19140625 5.17578125 C78.36656585 9.61188833 78.43420341 13.85501279 78.5546875 19.703125 C78.19140625 22.30078125 78.19140625 22.30078125 76.6953125 25.015625 C74.68742167 29.40169302 74.8365608 33.16572466 74.81640625 37.92578125 C74.44199096 51.26902119 70.2524966 61.2737476 60.76171875 70.71875 C56.74867158 74.46386375 53.45430649 77.51833732 48.19140625 79.30078125 C50.58135243 81.88988961 53.07763037 83.96447113 55.94140625 85.98828125 C65.80423133 93.35325864 70.35169642 101.78165175 74.19140625 113.30078125 C74.30318869 114.71086654 74.36887544 116.12494945 74.40234375 117.5390625 C74.43070312 118.35955078 74.4590625 119.18003906 74.48828125 120.02539062 C74.54000451 121.73872353 74.58438054 123.45229538 74.62109375 125.16601562 C74.81592383 130.3574255 75.65441176 133.67410445 78.19140625 138.30078125 C79.09541354 144.11478893 78.67408967 149.42502446 75.19140625 154.30078125 C68.82457199 159.51000928 62.07453525 160.60135772 54.04394531 160.59130859 C53.26079956 160.59802582 52.47765381 160.60474304 51.67077637 160.61166382 C49.09946219 160.63055341 46.52841036 160.63456363 43.95703125 160.63671875 C42.15492652 160.64315372 40.35282281 160.64988259 38.55072021 160.65689087 C34.77825501 160.66884162 31.00588122 160.67257404 27.23339844 160.67138672 C22.4242157 160.67118383 17.6156259 160.69846431 12.8065834 160.73293114 C9.0848324 160.75528577 5.36322206 160.75922162 1.64141083 160.75816727 C-0.13023162 160.76051118 -1.90187867 160.76926572 -3.67345428 160.784832 C-26.03278206 160.96288314 -26.03278206 160.96288314 -33.43359375 153.73828125 C-35.40964482 150.23528163 -35.98551393 147.4528617 -36.05859375 143.48828125 C-36.084375 142.65683594 -36.11015625 141.82539063 -36.13671875 140.96875 C-35.80859375 138.30078125 -35.80859375 138.30078125 -34.34765625 135.57421875 C-32.32600654 131.27436481 -32.21562966 127.43001076 -31.93359375 122.73828125 C-30.77439633 108.46923673 -26.54303576 97.25017807 -15.74609375 87.48828125 C-12.91173065 85.09457729 -9.99914029 83.19516826 -6.80859375 81.30078125 C-6.80859375 80.64078125 -6.80859375 79.98078125 -6.80859375 79.30078125 C-8.56290573 77.98932212 -8.56290573 77.98932212 -10.80859375 76.67578125 C-21.78008271 69.51072724 -28.40035715 60.03925831 -31.80859375 47.30078125 C-32.1794587 43.30538977 -32.22162491 39.29920657 -32.28710938 35.2890625 C-32.45497909 30.13832818 -33.29325418 26.89573227 -35.80859375 22.30078125 C-36.71260104 16.48677357 -36.29127717 11.17653804 -32.80859375 6.30078125 C-23.76688382 -1.44925583 -11.18027467 -0.01048466 0 0 Z M-26.74609375 11.48828125 C-28.4866158 14.4574071 -28.16727791 16.95306239 -27.80859375 20.30078125 C-27.32003906 20.76484375 -26.83148438 21.22890625 -26.328125 21.70703125 C-24.26722232 23.86859498 -24.31407662 25.3502876 -24.12109375 28.30078125 C-24.05277344 29.27660156 -23.98445313 30.25242187 -23.9140625 31.2578125 C-23.81278129 34.17996305 -23.85615939 37.06615302 -23.93359375 39.98828125 C-23.98444662 48.93838683 -20.35614406 54.54310355 -14.80859375 61.30078125 C-14.34453125 61.91050781 -13.88046875 62.52023438 -13.40234375 63.1484375 C-8.12154458 69.82278089 -1.20277988 73.95173259 6.5625 77.24609375 C8.65177294 78.5988604 9.25556133 80.03406138 10.19140625 82.30078125 C9.53140625 82.54828125 8.87140625 82.79578125 8.19140625 83.05078125 C-4.6768999 88.41257548 -16.29828732 96.66595345 -21.921875 109.92578125 C-23.24556548 114.96396882 -23.16628114 119.94904491 -23.19921875 125.13671875 C-23.35009403 130.36706165 -24.24427927 133.99132146 -26.9128418 138.5168457 C-28.41356258 141.50560742 -28.253607 144.05854184 -27.80859375 147.30078125 C-26.20290832 150.0398917 -24.7055696 150.33555364 -21.67674255 151.35783386 C-17.70179718 152.32681529 -14.04038348 152.58998134 -9.98071289 152.57543945 C-9.23176254 152.58055038 -8.48281219 152.58566132 -7.71116638 152.59092712 C-5.2552778 152.60473538 -2.79967259 152.60387312 -0.34375 152.6015625 C1.37586062 152.60545403 3.09547029 152.60978964 4.81507874 152.61454773 C8.41182579 152.62199093 12.00847464 152.62173232 15.60522461 152.61645508 C20.19938266 152.61066066 24.79313753 152.62759993 29.38722897 152.65079975 C32.93643009 152.66557733 36.48553498 152.66640337 40.03476143 152.66329002 C41.72792929 152.66380114 43.42110284 152.66899921 45.11424065 152.67910194 C47.48779921 152.69152868 49.86058339 152.68463826 52.23413086 152.6730957 C52.92372894 152.68073944 53.61332703 152.68838318 54.32382202 152.69625854 C60.11350037 152.63446377 65.97853669 151.51365081 70.19140625 147.30078125 C70.70847257 142.99189525 70.3443432 140.27593688 68.16796875 136.61328125 C65.80651188 132.07185663 65.87032876 128.43845594 66.19140625 123.42578125 C66.42466705 114.68651407 65.8148068 108.42977258 59.83984375 101.62109375 C57.35752311 99.09483823 54.80585452 96.68897919 52.19140625 94.30078125 C51.57523437 93.63304688 50.9590625 92.9653125 50.32421875 92.27734375 C47.50395822 89.66369571 44.41320768 87.91394906 41.06640625 86.05078125 C40.43347656 85.68726562 39.80054687 85.32375 39.1484375 84.94921875 C35.87445532 82.95835234 35.87445532 82.95835234 32.19140625 82.30078125 C33.43948757 78.53989619 35.55275886 77.25504364 38.98828125 75.4609375 C39.5915625 75.16058594 40.19484375 74.86023438 40.81640625 74.55078125 C41.42742187 74.23496094 42.0384375 73.91914062 42.66796875 73.59375 C44.17046364 72.81902607 45.68025643 72.05848454 47.19140625 71.30078125 C47.19140625 70.64078125 47.19140625 69.98078125 47.19140625 69.30078125 C47.75988281 69.05585937 48.32835938 68.8109375 48.9140625 68.55859375 C56.04059789 64.62249702 63.38325572 56.37185621 65.74438477 48.4440918 C66.19800797 46.26912832 66.27606351 44.40057274 66.21875 42.18359375 C66.20650391 41.41144531 66.19425781 40.63929687 66.18164062 39.84375 C66.14665271 38.23948929 66.10762932 36.63531122 66.06445312 35.03125 C65.99866819 30.3798679 66.28580696 26.64315733 68.19140625 22.30078125 C68.85140625 21.64078125 69.51140625 20.98078125 70.19140625 20.30078125 C70.66855295 15.70758196 70.66855295 15.70758196 69.12890625 11.48828125 C63.97918807 8.33200237 58.23464089 8.00761039 52.34765625 8.04199219 C51.59709961 8.03848755 50.84654297 8.03498291 50.07324219 8.03137207 C47.61253382 8.02262876 45.15211713 8.02837753 42.69140625 8.03515625 C40.96940049 8.03380747 39.24739509 8.03186516 37.52539062 8.02935791 C33.92444212 8.02641667 30.32359315 8.03067204 26.72265625 8.04003906 C22.11950761 8.05143299 17.51659224 8.04486816 12.91345215 8.03289413 C9.36000834 8.02564849 5.80661934 8.02797587 2.25317383 8.03314972 C0.5563962 8.03447874 -1.14038649 8.03286484 -2.8371582 8.02819061 C-5.21318646 8.02308076 -7.588843 8.03089772 -9.96484375 8.04199219 C-10.65803711 8.03794373 -11.35123047 8.03389526 -12.06542969 8.02972412 C-17.25862374 8.07438304 -22.25412312 8.73513796 -26.74609375 11.48828125 Z " fill="#030303" transform="translate(58.80859375,-0.30078125)"/>
<path d="M0 0 C4.36070484 1.50256496 7.90240656 3.83979054 11.625 6.5 C12.76294074 7.30219696 13.90095896 8.10428402 15.0390625 8.90625 C16.01617187 9.5971875 16.99328125 10.288125 18 11 C18.99 11.66 19.98 12.32 21 13 C21 13.66 21 14.32 21 15 C21.804375 15.226875 22.60875 15.45375 23.4375 15.6875 C24.283125 16.120625 25.12875 16.55375 26 17 C26.8125 19.625 26.8125 19.625 27 22 C27.99 22.33 28.98 22.66 30 23 C30.33895656 24.72807318 30.67091525 26.45751974 31 28.1875 C31.185625 29.15042969 31.37125 30.11335938 31.5625 31.10546875 C32.61606161 38.07590759 32.61606161 38.07590759 30 42 C21.40878416 41.58429601 14.13194579 39.23442957 8 33 C6.989375 32.525625 5.97875 32.05125 4.9375 31.5625 C1.68161111 29.83064421 1.30575876 29.29028198 0 26 C-2.26550567 16.86805431 -2.53978891 9.04799799 0 0 Z M7 14 C6.89731854 19.55926834 6.89731854 19.55926834 9.89453125 24.01953125 C13.75362269 27.05944573 17.37206093 29.30965346 22 31 C21.37026086 25.48978254 18.95908715 22.64343738 14.76953125 19.12890625 C11.21861775 15.77458831 11.21861775 15.77458831 7 14 Z " fill="#060606" transform="translate(85,88)"/>
<path d="M0 0 C2.08161371 10.40806856 0.31869246 19.04392261 -3 29 C-5.66083969 30.99396257 -8.61242325 33 -12 33 C-12.2475 33.61875 -12.495 34.2375 -12.75 34.875 C-14.23250486 37.39525827 -15.28387064 38.01231659 -18 39 C-18.99 39 -19.98 39 -21 39 C-21 39.66 -21 40.32 -21 41 C-24.63 41 -28.26 41 -32 41 C-34.64350261 33.06949218 -32.47060402 25.36574676 -29 18 C-27.13003081 15.78337856 -25.46275261 14.62436874 -23 13 C-22.55914062 12.53078125 -22.11828125 12.0615625 -21.6640625 11.578125 C-19.47326573 9.50046797 -17.0914823 8.24374212 -14.4375 6.8125 C-13.46683594 6.28269531 -12.49617188 5.75289063 -11.49609375 5.20703125 C-9 4 -9 4 -7 4 C-7 3.34 -7 2.68 -7 2 C-2.25 0 -2.25 0 0 0 Z M-21 22.4375 C-23.48163849 25.61709931 -23.76612221 28.02407758 -24 32 C-22.24870343 30.89789095 -20.49901536 29.79322568 -18.75 28.6875 C-17.28820312 27.76517578 -17.28820312 27.76517578 -15.796875 26.82421875 C-14.41242187 25.92123047 -14.41242187 25.92123047 -13 25 C-12.236875 24.5153125 -11.47375 24.030625 -10.6875 23.53125 C-8.59005089 21.62800915 -8.43262224 20.5974892 -8.25 17.8125 C-8.1675 16.554375 -8.085 15.29625 -8 14 C-12.07179673 14 -17.98997479 19.99185452 -21 22.4375 Z " fill="#060606" transform="translate(76,88)"/>
<path d="M0 0 C0 1.98 0 3.96 0 6 C-35.145 6.495 -35.145 6.495 -71 7 C-71 4.36 -71 1.72 -71 -1 C-63.49746601 -1.1548173 -55.9948246 -1.30297992 -48.49199963 -1.4429636 C-45.00704508 -1.50818641 -41.52216262 -1.5755846 -38.03735352 -1.64819336 C-34.01850285 -1.73182912 -29.99952071 -1.80557268 -25.98046875 -1.87890625 C-24.12980049 -1.91945885 -24.12980049 -1.91945885 -22.241745 -1.96083069 C-2.30033461 -2.30033461 -2.30033461 -2.30033461 0 0 Z " fill="#0D0D0D" transform="translate(115,30)"/>
</svg>
