<?xml version="1.0" encoding="iso-8859-1"?>
<!-- Generator: Adobe Illustrator 18.0.0, SVG Export Plug-In . SVG Version: 6.00 Build 0)  -->
<!DOCTYPE svg PUBLIC "-//W3C//DTD SVG 1.1//EN" "http://www.w3.org/Graphics/SVG/1.1/DTD/svg11.dtd">
<svg version="1.1" id="Layer_1" xmlns="http://www.w3.org/2000/svg" xmlns:xlink="http://www.w3.org/1999/xlink" x="0px" y="0px"
	 width="48px" height="48px" viewBox="0 0 48 48" style="enable-background:new 0 0 48 48;" xml:space="preserve">
<circle style="fill:#4DD0E1;" cx="24" cy="24" r="20"/>
<g>
	<path style="fill:#FFFFFF;" d="M22.491,30.69c-0.576,0-1.152-0.22-1.591-0.659l-6.083-6.084c-0.879-0.878-0.879-2.303,0-3.182
		c0.878-0.879,2.304-0.879,3.182,0l6.083,6.084c0.879,0.878,0.879,2.303,0,3.182C23.643,30.47,23.067,30.69,22.491,30.69z"/>
</g>
<g>
	<path style="fill:#FFFFFF;" d="M22.491,30.69c-0.576,0-1.152-0.22-1.591-0.659c-0.879-0.878-0.879-2.303,0-3.182l9.539-9.539
		c0.878-0.879,2.304-0.879,3.182,0c0.879,0.878,0.879,2.303,0,3.182l-9.539,9.539C23.643,30.47,23.067,30.69,22.491,30.69z"/>
</g>
</svg>